<svg width="38" height="33" viewBox="0 0 38 33" fill="none" xmlns="http://www.w3.org/2000/svg">
<path d="M20.8162 21.967C20.8162 22.898 20.0393 23.6606 19.0908 23.6606C18.1423 23.6606 17.3654 22.898 17.3654 21.967C17.3654 21.8481 17.3754 21.7392 17.3956 21.6303C17.5571 20.8577 18.2533 20.2734 19.0807 20.2734C19.9081 20.2734 20.6144 20.8577 20.7658 21.6303C20.786 21.7392 20.7961 21.858 20.7961 21.967H20.8162Z" fill="#F47FAF"/>
<path d="M2.74462 2.08974C2.40155 2.11945 2.1392 2.37696 2.10893 2.71369C1.97775 4.229 1.8264 8.52732 3.92518 11.7659C3.68301 12.172 3.46103 12.5978 3.25922 13.0336C3.6931 13.093 4.12698 13.1327 4.57096 13.1327C9.66655 13.1327 13.7935 9.13146 13.9146 4.16957C13.5715 4.27852 13.2284 4.39737 12.8853 4.53602C9.53538 1.78272 4.43978 1.94118 2.74462 2.08974Z" fill="#EFAB51"/>
<path d="M24.4286 30.8508C24.0855 30.8508 23.7929 30.6032 23.7425 30.2665C23.6819 29.8902 23.9443 29.5435 24.3277 29.4841C31.8046 28.3649 35.4472 24.75 35.4472 18.4313C35.4472 16.2128 34.8418 14.0834 33.6612 12.1125C33.53 11.8947 33.53 11.6074 33.6713 11.3896C35.6894 8.27971 35.4875 4.0012 35.3766 2.76321C33.9236 2.64436 28.9289 2.44628 25.7504 5.05102C25.5486 5.20949 25.2762 5.2491 25.0441 5.15997C23.0261 4.36765 20.9676 3.95168 19.1009 3.95168C17.2342 3.95168 15.1758 4.36765 13.1578 5.15997C12.9156 5.2491 12.6432 5.20949 12.4514 5.05102C9.26291 2.44628 4.26822 2.65426 2.80513 2.77311C2.70423 4.01111 2.50242 8.27971 4.52048 11.3896C4.66174 11.6074 4.66174 11.8848 4.53057 12.1026C3.33992 14.0735 2.74459 16.2029 2.74459 18.4214C2.74459 23.8487 5.41851 27.2557 10.9278 28.8502C11.3011 28.9592 11.513 29.3355 11.4021 29.702C11.2911 30.0684 10.9076 30.2764 10.5343 30.1675C4.43976 28.4046 1.34204 24.4529 1.34204 18.4214C1.34204 16.084 1.93737 13.8556 3.11793 11.7659C1.16042 8.43818 1.27141 4.30823 1.41267 2.64436C1.47321 1.98079 2.008 1.45588 2.68405 1.39646C4.66174 1.22809 9.53535 1.13896 13.0064 3.7338C15.0648 2.97119 17.1636 2.57503 19.0908 2.57503C21.0181 2.57503 23.1068 2.97119 25.1753 3.7338C28.6564 1.12905 33.5199 1.22809 35.4976 1.39646C36.1737 1.45588 36.7085 1.98079 36.769 2.64436C36.9103 4.30823 37.0314 8.43818 35.0638 11.7659C36.2443 13.8457 36.8396 16.084 36.8396 18.4214C36.8396 25.4334 32.7026 29.6128 24.5396 30.831C24.4992 30.831 24.469 30.831 24.4286 30.831V30.8508Z" fill="#3C4C42"/>
<path d="M7.15407 9.66627C6.96236 9.66627 6.76055 9.58704 6.62938 9.42858C6.11478 8.85415 5.469 7.44778 6.65965 6.26921C7.8503 5.10055 9.3134 5.7344 9.9289 6.21969C10.2316 6.45739 10.272 6.89316 10.0298 7.19028C9.78764 7.4874 9.34367 7.52702 9.04096 7.28932C8.90978 7.19028 8.21355 6.69508 7.6485 7.2398C7.07335 7.80433 7.61823 8.45799 7.67877 8.52732C7.93103 8.81453 7.90076 9.25031 7.60814 9.4979C7.47696 9.60685 7.31552 9.66627 7.15407 9.66627Z" fill="#3C4C42"/>
<path d="M31.0276 9.66627C30.8662 9.66627 30.7047 9.60684 30.5736 9.4979C30.2809 9.2503 30.2507 8.81453 30.5029 8.53721C30.6442 8.36885 31.0781 7.77461 30.5433 7.2497C29.9782 6.69508 29.282 7.19028 29.1508 7.29922C28.8481 7.53691 28.4142 7.4874 28.1721 7.20018C27.9299 6.90306 27.9703 6.47719 28.273 6.2395C28.8885 5.7443 30.3617 5.12035 31.5422 6.28902C32.7329 7.45768 32.0871 8.86405 31.5725 9.44838C31.4312 9.60684 31.2395 9.68607 31.0478 9.68607L31.0276 9.66627Z" fill="#3C4C42"/>
<path d="M11.725 13.1327C13.7935 13.1327 15.4584 15.4601 15.4584 15.4601C15.4584 15.4601 13.7834 17.7875 11.725 17.7875C9.66657 17.7875 7.99158 15.4601 7.99158 15.4601C7.99158 15.4601 9.66657 13.1327 11.725 13.1327ZM11.725 11.756C9.0107 11.756 7.06327 14.3607 6.84129 14.6579C6.49822 15.1333 6.49822 15.7671 6.84129 16.2425C7.05318 16.5396 9.0107 19.1444 11.725 19.1444C14.4393 19.1444 16.3867 16.5396 16.6087 16.2425C16.9517 15.7671 16.9517 15.1333 16.6087 14.6579C16.3968 14.3607 14.4393 11.756 11.725 11.756Z" fill="#3C4C42"/>
<path d="M15.6399 15.4997C15.6399 17.0249 14.308 18.2233 13.2889 18.2233C12.2698 18.2233 11.4424 16.9853 11.4424 15.4601C11.4424 13.9349 12.2698 12.6969 13.2889 12.6969C14.308 12.6969 15.6399 13.9745 15.6399 15.5096V15.4997Z" fill="#3C4C42"/>
<path d="M26.4668 13.1327C28.5353 13.1327 30.2002 15.4601 30.2002 15.4601C30.2002 15.4601 28.5252 17.7875 26.4668 17.7875C24.4084 17.7875 22.7334 15.4601 22.7334 15.4601C22.7334 15.4601 24.4084 13.1327 26.4668 13.1327ZM26.4668 11.756C23.7525 11.756 21.8051 14.3607 21.5831 14.6579C21.24 15.1333 21.24 15.7671 21.5831 16.2425C21.795 16.5396 23.7525 19.1444 26.4668 19.1444C29.1811 19.1444 31.1285 16.5396 31.3505 16.2425C31.6936 15.7671 31.6936 15.1333 31.3505 14.6579C31.1386 14.3607 29.1811 11.756 26.4668 11.756Z" fill="#3C4C42"/>
<path d="M30.3818 15.4997C30.3818 17.0249 29.0499 18.2233 28.0308 18.2233C27.0117 18.2233 26.1742 16.9853 26.1742 15.4601C26.1742 13.9349 27.0016 12.6969 28.0308 12.6969C29.06 12.6969 30.3818 13.9745 30.3818 15.5096V15.4997Z" fill="#3C4C42"/>
<path d="M2.92626 23.2149C2.62355 23.2149 2.34102 23.0168 2.25021 22.7197C2.13922 22.3532 2.3612 21.9769 2.73454 21.8679L6.94219 20.6894C7.31553 20.5804 7.69896 20.7983 7.80995 21.1648C7.92095 21.5312 7.69896 21.9076 7.32562 22.0165L3.11797 23.1951C3.05743 23.2149 2.9868 23.2248 2.92626 23.2248V23.2149Z" fill="#3C4C42"/>
<path d="M5.77164 27.642C5.62029 27.642 5.46894 27.5924 5.33776 27.4934C5.03505 27.2557 4.9846 26.8298 5.21668 26.5327L8.13277 22.8781C8.37494 22.581 8.80882 22.5315 9.11153 22.7593C9.41424 22.9871 9.46469 23.4229 9.23261 23.72L6.31652 27.3745C6.17526 27.5429 5.97345 27.642 5.76155 27.642H5.77164Z" fill="#3C4C42"/>
<path d="M35.2656 23.2149C35.2051 23.2149 35.1344 23.2149 35.0739 23.1852L30.8662 22.0066C30.4929 21.9076 30.281 21.5213 30.3819 21.1549C30.4929 20.7884 30.8763 20.5804 31.2497 20.6795L35.4573 21.858C35.8306 21.9571 36.0425 22.3433 35.9416 22.7098C35.8508 23.0069 35.5784 23.205 35.2656 23.205V23.2149Z" fill="#3C4C42"/>
<path d="M32.4202 27.642C32.2083 27.642 32.0065 27.5528 31.8652 27.3746L28.9491 23.72C28.7069 23.4229 28.7675 22.9871 29.0702 22.7593C29.3729 22.5216 29.8169 22.581 30.049 22.8782L32.965 26.5327C33.2072 26.8298 33.1467 27.2656 32.844 27.4934C32.7128 27.5924 32.5614 27.642 32.4101 27.642H32.4202Z" fill="#3C4C42"/>
<path d="M17.1939 22.0363C16.8105 22.0363 16.4977 21.7293 16.4977 21.3529C16.4977 20.9766 16.8105 20.6696 17.1939 20.6696C17.8195 20.6696 18.324 20.1744 18.324 19.5603V19.2236C18.324 18.8472 18.6368 18.5402 19.0203 18.5402C19.4037 18.5402 19.7165 18.8472 19.7165 19.2236V19.5603C19.7165 20.9271 18.5763 22.0462 17.1838 22.0462L17.1939 22.0363Z" fill="#3C4C42"/>
<path d="M20.9979 22.0363C19.6054 22.0363 18.4652 20.9172 18.4652 19.5504V19.2137C18.4652 18.8373 18.778 18.5303 19.1614 18.5303C19.5449 18.5303 19.8577 18.8373 19.8577 19.2137V19.5504C19.8577 20.1645 20.3622 20.6597 20.9878 20.6597C21.3712 20.6597 21.684 20.9667 21.684 21.343C21.684 21.7194 21.3712 22.0264 20.9878 22.0264L20.9979 22.0363Z" fill="#3C4C42"/>
<path d="M21.2299 18.6294C21.2299 19.1047 19.0908 19.9565 19.0908 19.9565C19.0908 19.9565 16.9517 19.1047 16.9517 18.6294C16.9517 18.154 17.9102 17.7677 19.0908 17.7677C20.2714 17.7677 21.2299 18.154 21.2299 18.6294Z" fill="#3C4C42"/>
</svg>
